<svg xmlns="http://www.w3.org/2000/svg" viewBox="0 0 900 260" width="900" height="260">
  <title>dewfall — point clouds, settled</title>
  <g transform="translate(30, 10)">
    <circle cx="108.11" cy="39.67" r="2.39" fill="#66c4f2" fill-opacity="0.99"/>
    <circle cx="116.34" cy="37.38" r="4.53" fill="#67c5f2" fill-opacity="0.97"/>
    <circle cx="124.58" cy="38.99" r="3.75" fill="#63c2f1" fill-opacity="0.96"/>
    <circle cx="133.35" cy="38.82" r="1.95" fill="#5dbeee" fill-opacity="0.88"/>
    <circle cx="106.64" cy="43.30" r="2.83" fill="#5bbded" fill-opacity="0.87"/>
    <circle cx="117.24" cy="47.44" r="6.59" fill="#59bcec" fill-opacity="0.87"/>
    <circle cx="123.43" cy="45.38" r="4.51" fill="#61c1f0" fill-opacity="0.92"/>
    <circle cx="133.11" cy="45.92" r="2.81" fill="#50b6e9" fill-opacity="0.95"/>
    <circle cx="100.28" cy="54.66" r="2.53" fill="#45afe4" fill-opacity="0.96"/>
    <circle cx="106.17" cy="53.74" r="3.73" fill="#4cb4e7" fill-opacity="0.97"/>
    <circle cx="114.22" cy="52.32" r="5.93" fill="#54b8ea" fill-opacity="0.95"/>
    <circle cx="124.26" cy="52.78" r="5.22" fill="#59bcec" fill-opacity="0.90"/>
    <circle cx="130.63" cy="51.12" r="3.83" fill="#50b6e9" fill-opacity="1.00"/>
    <circle cx="141.49" cy="54.20" r="1.60" fill="#52b8ea" fill-opacity="0.88"/>
    <circle cx="99.08" cy="62.56" r="2.46" fill="#3daae1" fill-opacity="0.93"/>
    <circle cx="106.72" cy="62.66" r="5.62" fill="#40ace2" fill-opacity="0.93"/>
    <circle cx="118.22" cy="60.51" r="5.97" fill="#46afe4" fill-opacity="0.86"/>
    <circle cx="125.84" cy="62.77" r="5.41" fill="#3ba9e0" fill-opacity="0.95"/>
    <circle cx="130.44" cy="59.85" r="5.69" fill="#44aee3" fill-opacity="0.88"/>
    <circle cx="138.81" cy="61.52" r="3.90" fill="#4eb5e8" fill-opacity="0.99"/>
    <circle cx="146.34" cy="62.38" r="1.43" fill="#3ca9e0" fill-opacity="0.98"/>
    <circle cx="91.95" cy="70.05" r="1.91" fill="#3ba8df" fill-opacity="0.90"/>
    <circle cx="101.98" cy="68.63" r="4.10" fill="#42ade3" fill-opacity="0.86"/>
    <circle cx="109.61" cy="67.60" r="5.26" fill="#3ba9e0" fill-opacity="0.92"/>
    <circle cx="116.36" cy="67.54" r="6.48" fill="#41ade2" fill-opacity="0.93"/>
    <circle cx="122.81" cy="67.83" r="8.19" fill="#41ade2" fill-opacity="0.96"/>
    <circle cx="131.87" cy="70.90" r="5.58" fill="#37a6de" fill-opacity="0.98"/>
    <circle cx="137.60" cy="70.22" r="4.08" fill="#32a3dc" fill-opacity="0.93"/>
    <circle cx="148.86" cy="70.57" r="2.56" fill="#37a6de" fill-opacity="0.97"/>
    <circle cx="86.08" cy="77.38" r="2.02" fill="#31a2db" fill-opacity="0.86"/>
    <circle cx="91.16" cy="76.29" r="3.16" fill="#2fa1da" fill-opacity="0.97"/>
    <circle cx="101.42" cy="76.02" r="4.06" fill="#2c9fd9" fill-opacity="0.87"/>
    <circle cx="109.55" cy="75.73" r="7.54" fill="#2ea1da" fill-opacity="0.98"/>
    <circle cx="118.09" cy="78.00" r="7.17" fill="#32a3dc" fill-opacity="0.99"/>
    <circle cx="122.15" cy="75.68" r="7.32" fill="#30a2db" fill-opacity="0.97"/>
    <circle cx="130.40" cy="76.62" r="6.14" fill="#39a7df" fill-opacity="0.99"/>
    <circle cx="140.18" cy="77.99" r="4.23" fill="#2ea0da" fill-opacity="0.85"/>
    <circle cx="149.36" cy="77.99" r="3.22" fill="#36a6dd" fill-opacity="0.91"/>
    <circle cx="154.43" cy="78.63" r="2.39" fill="#2b9ed8" fill-opacity="0.93"/>
    <circle cx="85.94" cy="85.50" r="3.57" fill="#2fa1da" fill-opacity="0.99"/>
    <circle cx="91.43" cy="84.41" r="3.78" fill="#30a1db" fill-opacity="0.90"/>
    <circle cx="98.82" cy="83.50" r="5.02" fill="#2fa1da" fill-opacity="0.90"/>
    <circle cx="106.97" cy="86.26" r="6.85" fill="#279cd7" fill-opacity="0.91"/>
    <circle cx="116.76" cy="83.92" r="7.28" fill="#259bd6" fill-opacity="0.85"/>
    <circle cx="124.70" cy="82.73" r="6.91" fill="#2ea0da" fill-opacity="0.88"/>
    <circle cx="132.56" cy="83.46" r="5.31" fill="#289dd8" fill-opacity="0.89"/>
    <circle cx="137.96" cy="82.61" r="6.61" fill="#289cd7" fill-opacity="0.89"/>
    <circle cx="148.86" cy="86.11" r="4.83" fill="#249ad6" fill-opacity="0.87"/>
    <circle cx="154.82" cy="84.98" r="2.94" fill="#2a9ed8" fill-opacity="0.90"/>
    <circle cx="86.07" cy="90.81" r="4.25" fill="#2b9ed9" fill-opacity="0.88"/>
    <circle cx="94.11" cy="93.07" r="6.23" fill="#1c95d2" fill-opacity="0.94"/>
    <circle cx="100.44" cy="92.64" r="6.80" fill="#289dd7" fill-opacity="0.94"/>
    <circle cx="107.59" cy="94.33" r="6.83" fill="#1892d1" fill-opacity="0.98"/>
    <circle cx="117.32" cy="92.44" r="7.02" fill="#1b94d2" fill-opacity="0.97"/>
    <circle cx="123.04" cy="93.07" r="6.25" fill="#2299d5" fill-opacity="0.99"/>
    <circle cx="132.97" cy="91.38" r="8.29" fill="#1c95d2" fill-opacity="0.90"/>
    <circle cx="139.33" cy="94.39" r="6.47" fill="#1c95d2" fill-opacity="0.93"/>
    <circle cx="145.99" cy="90.39" r="5.41" fill="#279cd7" fill-opacity="0.90"/>
    <circle cx="153.78" cy="92.45" r="4.81" fill="#289dd8" fill-opacity="0.95"/>
    <circle cx="77.81" cy="98.67" r="2.62" fill="#1f96d3" fill-opacity="0.92"/>
    <circle cx="84.26" cy="101.80" r="5.76" fill="#0c8acb" fill-opacity="0.97"/>
    <circle cx="90.36" cy="99.56" r="5.14" fill="#1791d0" fill-opacity="0.85"/>
    <circle cx="109.82" cy="101.62" r="5.46" fill="#1792d0" fill-opacity="0.96"/>
    <circle cx="114.94" cy="101.38" r="5.50" fill="#1993d1" fill-opacity="0.94"/>
    <circle cx="122.82" cy="98.99" r="7.98" fill="#1792d0" fill-opacity="0.92"/>
    <circle cx="133.12" cy="100.88" r="5.56" fill="#1b94d2" fill-opacity="0.89"/>
    <circle cx="141.67" cy="100.11" r="7.10" fill="#108dcd" fill-opacity="0.87"/>
    <circle cx="149.50" cy="99.68" r="5.53" fill="#1a94d1" fill-opacity="0.99"/>
    <circle cx="154.01" cy="102.36" r="5.25" fill="#108dcd" fill-opacity="0.92"/>
    <circle cx="161.40" cy="100.25" r="3.69" fill="#128ece" fill-opacity="0.86"/>
    <circle cx="76.47" cy="110.15" r="3.01" fill="#0384c7" fill-opacity="0.88"/>
    <circle cx="85.10" cy="106.41" r="5.58" fill="#1791d0" fill-opacity="1.00"/>
    <circle cx="108.22" cy="106.26" r="7.97" fill="#1490cf" fill-opacity="0.89"/>
    <circle cx="118.09" cy="109.80" r="6.00" fill="#0b8acb" fill-opacity="0.90"/>
    <circle cx="125.99" cy="109.75" r="5.88" fill="#0a89ca" fill-opacity="0.93"/>
    <circle cx="133.56" cy="108.95" r="7.65" fill="#0c8acb" fill-opacity="0.87"/>
    <circle cx="141.22" cy="107.94" r="7.18" fill="#138fce" fill-opacity="0.97"/>
    <circle cx="147.48" cy="109.06" r="5.25" fill="#0a89ca" fill-opacity="0.88"/>
    <circle cx="154.34" cy="108.84" r="5.89" fill="#118ece" fill-opacity="0.94"/>
    <circle cx="164.06" cy="108.15" r="3.46" fill="#0485c8" fill-opacity="0.92"/>
    <circle cx="169.46" cy="109.09" r="2.95" fill="#108dcd" fill-opacity="0.93"/>
    <circle cx="68.57" cy="116.06" r="2.67" fill="#0787c9" fill-opacity="0.99"/>
    <circle cx="77.60" cy="115.84" r="4.48" fill="#0586c8" fill-opacity="0.93"/>
    <circle cx="116.21" cy="114.15" r="5.21" fill="#0284c7" fill-opacity="0.97"/>
    <circle cx="125.41" cy="113.93" r="7.81" fill="#0f8ccc" fill-opacity="0.86"/>
    <circle cx="132.62" cy="116.85" r="7.84" fill="#0283c5" fill-opacity="0.88"/>
    <circle cx="140.97" cy="116.27" r="6.13" fill="#0282c4" fill-opacity="0.91"/>
    <circle cx="148.99" cy="115.60" r="7.18" fill="#0a89ca" fill-opacity="0.90"/>
    <circle cx="153.62" cy="116.44" r="6.27" fill="#0283c5" fill-opacity="0.88"/>
    <circle cx="161.35" cy="115.63" r="5.76" fill="#0385c7" fill-opacity="1.00"/>
    <circle cx="172.65" cy="117.35" r="3.16" fill="#0b8acb" fill-opacity="0.87"/>
    <circle cx="61.24" cy="125.39" r="2.45" fill="#0381c2" fill-opacity="0.97"/>
    <circle cx="70.29" cy="124.30" r="3.68" fill="#0380c0" fill-opacity="0.98"/>
    <circle cx="75.25" cy="124.40" r="6.32" fill="#0381c2" fill-opacity="0.86"/>
    <circle cx="109.36" cy="123.37" r="5.50" fill="#037bba" fill-opacity="0.89"/>
    <circle cx="114.62" cy="122.87" r="6.58" fill="#0381c2" fill-opacity="0.91"/>
    <circle cx="123.20" cy="126.03" r="6.28" fill="#037ebe" fill-opacity="0.95"/>
    <circle cx="132.22" cy="124.20" r="5.48" fill="#037dbd" fill-opacity="0.91"/>
    <circle cx="139.99" cy="123.38" r="8.28" fill="#0283c6" fill-opacity="0.95"/>
    <circle cx="146.32" cy="123.52" r="6.70" fill="#0284c7" fill-opacity="0.93"/>
    <circle cx="155.55" cy="122.74" r="8.32" fill="#037ebe" fill-opacity="0.98"/>
    <circle cx="163.94" cy="121.95" r="4.41" fill="#0381c2" fill-opacity="0.87"/>
    <circle cx="173.09" cy="124.25" r="2.96" fill="#0380c1" fill-opacity="0.92"/>
    <circle cx="179.74" cy="125.48" r="2.27" fill="#047bb9" fill-opacity="0.98"/>
    <circle cx="60.10" cy="130.98" r="2.82" fill="#047bb9" fill-opacity="0.86"/>
    <circle cx="69.99" cy="131.09" r="5.74" fill="#0476b1" fill-opacity="0.96"/>
    <circle cx="78.07" cy="130.58" r="5.54" fill="#0478b4" fill-opacity="0.85"/>
    <circle cx="84.84" cy="133.29" r="8.24" fill="#0477b3" fill-opacity="0.90"/>
    <circle cx="107.85" cy="131.24" r="5.81" fill="#0476b2" fill-opacity="0.94"/>
    <circle cx="114.17" cy="132.69" r="8.25" fill="#0479b5" fill-opacity="0.94"/>
    <circle cx="121.87" cy="131.53" r="6.51" fill="#047ab7" fill-opacity="0.86"/>
    <circle cx="131.16" cy="132.70" r="5.51" fill="#0575b1" fill-opacity="0.95"/>
    <circle cx="137.94" cy="132.10" r="6.93" fill="#0479b6" fill-opacity="0.90"/>
    <circle cx="146.60" cy="129.83" r="7.93" fill="#037fc0" fill-opacity="0.93"/>
    <circle cx="156.46" cy="132.62" r="7.25" fill="#037cbb" fill-opacity="0.91"/>
    <circle cx="161.88" cy="129.83" r="7.31" fill="#037fbf" fill-opacity="0.94"/>
    <circle cx="169.74" cy="132.02" r="4.86" fill="#0479b6" fill-opacity="0.90"/>
    <circle cx="177.68" cy="131.44" r="3.33" fill="#047ab7" fill-opacity="0.87"/>
    <circle cx="51.29" cy="139.00" r="1.53" fill="#0476b2" fill-opacity="0.96"/>
    <circle cx="61.52" cy="138.88" r="3.30" fill="#047ab7" fill-opacity="0.94"/>
    <circle cx="69.80" cy="139.67" r="6.16" fill="#0670a8" fill-opacity="0.85"/>
    <circle cx="76.06" cy="138.94" r="7.21" fill="#0571aa" fill-opacity="0.98"/>
    <circle cx="83.58" cy="140.01" r="7.24" fill="#0479b6" fill-opacity="0.99"/>
    <circle cx="109.38" cy="140.92" r="7.71" fill="#0478b5" fill-opacity="0.96"/>
    <circle cx="116.45" cy="141.14" r="8.05" fill="#0575b1" fill-opacity="0.96"/>
    <circle cx="125.34" cy="137.99" r="6.71" fill="#0476b1" fill-opacity="0.94"/>
    <circle cx="131.63" cy="141.17" r="7.65" fill="#0476b2" fill-opacity="0.99"/>
    <circle cx="140.91" cy="137.95" r="5.17" fill="#0574af" fill-opacity="0.89"/>
    <circle cx="146.42" cy="139.74" r="7.37" fill="#0479b7" fill-opacity="0.88"/>
    <circle cx="153.84" cy="137.52" r="7.57" fill="#047bb9" fill-opacity="0.86"/>
    <circle cx="164.39" cy="140.61" r="6.88" fill="#0571a9" fill-opacity="0.94"/>
    <circle cx="172.04" cy="138.45" r="6.78" fill="#0575b0" fill-opacity="0.88"/>
    <circle cx="177.48" cy="141.52" r="5.54" fill="#0476b2" fill-opacity="0.92"/>
    <circle cx="188.19" cy="141.23" r="2.63" fill="#0575b0" fill-opacity="0.94"/>
    <circle cx="59.14" cy="145.40" r="5.35" fill="#0571ab" fill-opacity="0.91"/>
    <circle cx="70.29" cy="146.18" r="6.09" fill="#066ea5" fill-opacity="0.88"/>
    <circle cx="75.88" cy="147.65" r="7.53" fill="#066ba0" fill-opacity="0.89"/>
    <circle cx="86.64" cy="147.83" r="7.35" fill="#0573ae" fill-opacity="0.96"/>
    <circle cx="92.06" cy="146.12" r="5.88" fill="#066da4" fill-opacity="0.91"/>
    <circle cx="98.33" cy="146.45" r="6.37" fill="#066ea6" fill-opacity="0.88"/>
    <circle cx="106.80" cy="148.00" r="7.98" fill="#066ca2" fill-opacity="0.87"/>
    <circle cx="116.47" cy="145.75" r="6.46" fill="#0572ac" fill-opacity="0.91"/>
    <circle cx="123.02" cy="145.37" r="8.24" fill="#066ca2" fill-opacity="0.96"/>
    <circle cx="131.70" cy="145.90" r="6.05" fill="#0572ab" fill-opacity="0.95"/>
    <circle cx="139.19" cy="149.38" r="7.72" fill="#0572ab" fill-opacity="0.89"/>
    <circle cx="147.48" cy="146.99" r="8.06" fill="#066ca2" fill-opacity="0.96"/>
    <circle cx="155.76" cy="146.37" r="6.21" fill="#0670a8" fill-opacity="0.98"/>
    <circle cx="164.84" cy="145.37" r="6.09" fill="#066ea5" fill-opacity="0.87"/>
    <circle cx="170.23" cy="145.50" r="5.50" fill="#066fa6" fill-opacity="0.90"/>
    <circle cx="179.66" cy="145.68" r="3.88" fill="#066ea5" fill-opacity="0.95"/>
    <circle cx="59.63" cy="156.65" r="6.86" fill="#076a9f" fill-opacity="0.97"/>
    <circle cx="69.52" cy="156.83" r="5.97" fill="#066ba0" fill-opacity="0.96"/>
    <circle cx="76.52" cy="156.94" r="6.55" fill="#066ca2" fill-opacity="0.89"/>
    <circle cx="85.24" cy="155.24" r="5.98" fill="#07699d" fill-opacity="0.95"/>
    <circle cx="92.17" cy="154.27" r="7.93" fill="#066fa7" fill-opacity="0.94"/>
    <circle cx="100.49" cy="155.37" r="6.13" fill="#066ea6" fill-opacity="0.86"/>
    <circle cx="108.15" cy="153.24" r="6.94" fill="#066a9f" fill-opacity="0.86"/>
    <circle cx="117.52" cy="155.37" r="7.38" fill="#076497" fill-opacity="0.92"/>
    <circle cx="123.99" cy="156.62" r="5.97" fill="#076597" fill-opacity="0.94"/>
    <circle cx="133.57" cy="157.33" r="5.27" fill="#076598" fill-opacity="0.86"/>
    <circle cx="137.70" cy="156.83" r="7.41" fill="#066da3" fill-opacity="0.95"/>
    <circle cx="148.31" cy="153.94" r="8.34" fill="#066ea5" fill-opacity="0.95"/>
    <circle cx="153.69" cy="154.76" r="6.05" fill="#066ba0" fill-opacity="0.94"/>
    <circle cx="162.20" cy="156.21" r="7.23" fill="#07699d" fill-opacity="0.88"/>
    <circle cx="170.22" cy="154.86" r="7.57" fill="#066ca2" fill-opacity="0.91"/>
    <circle cx="179.90" cy="157.07" r="6.62" fill="#066da3" fill-opacity="0.91"/>
    <circle cx="67.85" cy="164.10" r="5.19" fill="#085e8d" fill-opacity="0.91"/>
    <circle cx="77.89" cy="163.39" r="5.39" fill="#086394" fill-opacity="0.98"/>
    <circle cx="86.37" cy="163.78" r="6.06" fill="#07679b" fill-opacity="0.87"/>
    <circle cx="92.44" cy="162.52" r="7.87" fill="#086395" fill-opacity="0.88"/>
    <circle cx="101.73" cy="164.84" r="7.26" fill="#095e8d" fill-opacity="0.95"/>
    <circle cx="106.16" cy="164.79" r="7.98" fill="#08608f" fill-opacity="0.90"/>
    <circle cx="116.31" cy="161.32" r="8.03" fill="#076598" fill-opacity="0.89"/>
    <circle cx="122.12" cy="162.83" r="6.94" fill="#07689c" fill-opacity="0.85"/>
    <circle cx="132.95" cy="164.90" r="6.30" fill="#08608f" fill-opacity="0.87"/>
    <circle cx="140.67" cy="164.14" r="7.75" fill="#085f8f" fill-opacity="0.92"/>
    <circle cx="149.55" cy="161.30" r="6.29" fill="#07699d" fill-opacity="0.95"/>
    <circle cx="157.06" cy="163.60" r="7.54" fill="#085e8d" fill-opacity="0.96"/>
    <circle cx="163.35" cy="165.32" r="7.41" fill="#076496" fill-opacity="0.95"/>
    <circle cx="172.74" cy="161.67" r="6.40" fill="#076598" fill-opacity="0.99"/>
    <circle cx="176.88" cy="161.85" r="7.28" fill="#086495" fill-opacity="0.99"/>
    <circle cx="62.99" cy="171.93" r="6.62" fill="#086292" fill-opacity="0.88"/>
    <circle cx="70.70" cy="171.35" r="8.41" fill="#08608f" fill-opacity="0.92"/>
    <circle cx="77.53" cy="169.55" r="7.76" fill="#095c8a" fill-opacity="0.97"/>
    <circle cx="84.55" cy="169.17" r="5.83" fill="#086292" fill-opacity="0.93"/>
    <circle cx="90.52" cy="171.95" r="5.67" fill="#095d8c" fill-opacity="0.91"/>
    <circle cx="99.05" cy="172.13" r="7.29" fill="#08608f" fill-opacity="0.90"/>
    <circle cx="107.74" cy="171.62" r="5.83" fill="#086192" fill-opacity="0.94"/>
    <circle cx="117.09" cy="171.63" r="7.52" fill="#086394" fill-opacity="0.94"/>
    <circle cx="124.93" cy="170.42" r="7.25" fill="#095b89" fill-opacity="0.85"/>
    <circle cx="131.32" cy="172.20" r="6.66" fill="#086090" fill-opacity="0.86"/>
    <circle cx="137.69" cy="171.76" r="6.38" fill="#086394" fill-opacity="0.99"/>
    <circle cx="149.27" cy="172.94" r="5.20" fill="#086090" fill-opacity="0.98"/>
    <circle cx="153.68" cy="172.12" r="6.80" fill="#095c8a" fill-opacity="0.85"/>
    <circle cx="161.15" cy="169.95" r="6.45" fill="#086293" fill-opacity="0.96"/>
    <circle cx="169.73" cy="171.94" r="7.94" fill="#095c89" fill-opacity="0.94"/>
    <circle cx="69.54" cy="177.41" r="7.41" fill="#0a5681" fill-opacity="0.93"/>
    <circle cx="75.50" cy="177.70" r="6.75" fill="#095c89" fill-opacity="0.99"/>
    <circle cx="83.95" cy="178.41" r="7.78" fill="#0a547e" fill-opacity="0.92"/>
    <circle cx="94.49" cy="180.64" r="7.85" fill="#0a5680" fill-opacity="0.98"/>
    <circle cx="99.51" cy="177.75" r="6.26" fill="#0a5681" fill-opacity="0.87"/>
    <circle cx="108.51" cy="179.02" r="6.56" fill="#095c89" fill-opacity="0.94"/>
    <circle cx="114.97" cy="179.21" r="6.76" fill="#0a547e" fill-opacity="0.93"/>
    <circle cx="124.14" cy="180.94" r="7.55" fill="#095c8a" fill-opacity="0.96"/>
    <circle cx="133.76" cy="180.96" r="6.65" fill="#0a5681" fill-opacity="0.88"/>
    <circle cx="138.32" cy="178.84" r="5.14" fill="#095d8b" fill-opacity="0.87"/>
    <circle cx="149.58" cy="178.13" r="8.32" fill="#095a86" fill-opacity="0.88"/>
    <circle cx="153.97" cy="179.62" r="7.41" fill="#095a86" fill-opacity="0.92"/>
    <circle cx="162.42" cy="178.80" r="7.24" fill="#095c8a" fill-opacity="0.94"/>
    <circle cx="170.70" cy="179.05" r="8.38" fill="#0a547e" fill-opacity="0.91"/>
    <circle cx="76.71" cy="188.31" r="7.75" fill="#0b4f75" fill-opacity="0.96"/>
    <circle cx="83.50" cy="187.29" r="6.82" fill="#0a537d" fill-opacity="0.93"/>
    <circle cx="92.84" cy="188.24" r="6.41" fill="#0a5782" fill-opacity="0.98"/>
    <circle cx="98.48" cy="186.92" r="5.59" fill="#0b527a" fill-opacity="0.98"/>
    <circle cx="107.14" cy="186.92" r="6.56" fill="#0a5681" fill-opacity="0.88"/>
    <circle cx="116.13" cy="187.59" r="5.97" fill="#0a557f" fill-opacity="0.86"/>
    <circle cx="123.84" cy="186.40" r="5.42" fill="#0b4f75" fill-opacity="0.92"/>
    <circle cx="130.56" cy="188.03" r="6.73" fill="#0b527b" fill-opacity="1.00"/>
    <circle cx="139.48" cy="185.71" r="5.54" fill="#0b5078" fill-opacity="0.89"/>
    <circle cx="145.33" cy="187.30" r="5.84" fill="#0b5179" fill-opacity="0.89"/>
    <circle cx="154.53" cy="185.79" r="6.35" fill="#095984" fill-opacity="0.88"/>
    <circle cx="165.34" cy="185.75" r="6.42" fill="#0b4f76" fill-opacity="0.86"/>
    <circle cx="83.56" cy="195.15" r="7.72" fill="#0b4e75" fill-opacity="0.94"/>
    <circle cx="90.72" cy="193.95" r="6.40" fill="#0c4b6f" fill-opacity="0.91"/>
    <circle cx="101.32" cy="195.65" r="7.30" fill="#0b5077" fill-opacity="0.94"/>
    <circle cx="106.28" cy="192.52" r="8.03" fill="#0b5077" fill-opacity="0.89"/>
    <circle cx="114.02" cy="194.56" r="6.86" fill="#0b4e74" fill-opacity="0.88"/>
    <circle cx="125.46" cy="193.69" r="6.39" fill="#0c4a6e" fill-opacity="0.85"/>
    <circle cx="133.93" cy="192.92" r="6.83" fill="#0b527b" fill-opacity="0.97"/>
    <circle cx="138.68" cy="196.61" r="6.57" fill="#0b5178" fill-opacity="0.91"/>
    <circle cx="147.75" cy="196.30" r="5.33" fill="#0c4b70" fill-opacity="0.98"/>
    <circle cx="156.25" cy="195.21" r="6.04" fill="#0c4a6e" fill-opacity="0.94"/>
    <circle cx="94.46" cy="202.22" r="6.42" fill="#0c4a6e" fill-opacity="0.91"/>
    <circle cx="100.31" cy="202.87" r="6.41" fill="#0c4a6e" fill-opacity="0.90"/>
    <circle cx="108.61" cy="202.58" r="6.76" fill="#0c4a6e" fill-opacity="0.86"/>
    <circle cx="114.57" cy="203.54" r="6.25" fill="#0c4a6e" fill-opacity="0.89"/>
    <circle cx="125.56" cy="200.93" r="6.98" fill="#0c4a6e" fill-opacity="0.97"/>
    <circle cx="133.89" cy="200.33" r="7.17" fill="#0b4d73" fill-opacity="0.94"/>
    <circle cx="138.77" cy="202.43" r="7.28" fill="#0c4a6e" fill-opacity="0.99"/>
    <circle cx="147.00" cy="202.70" r="7.60" fill="#0c4a6e" fill-opacity="0.85"/>
    <circle cx="117.84" cy="208.95" r="6.97" fill="#0c4a6e" fill-opacity="0.91"/>
    <circle cx="124.85" cy="208.54" r="6.26" fill="#0c4a6e" fill-opacity="0.98"/>
  </g>
  <g font-family="ui-sans-serif, system-ui, -apple-system, 'Segoe UI', sans-serif">
    <text x="300" y="150" font-size="104" font-weight="650" letter-spacing="-2" fill="#0c4a6e">dew<tspan fill="#0284c7">fall</tspan></text>
    <text x="304" y="200" font-size="30" fill="#64748b">point clouds, settled.</text>
  </g>
</svg>
